<?xml version="1.0" encoding="utf-8"?>
<!-- Generator: Adobe Illustrator 19.2.1, SVG Export Plug-In . SVG Version: 6.00 Build 0)  -->
<svg version="1.1" id="Layer_1" xmlns="http://www.w3.org/2000/svg" xmlns:xlink="http://www.w3.org/1999/xlink" x="0px" y="0px"
	 viewBox="0 0 332.9 133.4" style="enable-background:new 0 0 332.9 133.4;" xml:space="preserve">
<metadata><?xpacket begin="﻿" id="W5M0MpCehiHzreSzNTczkc9d"?>
<x:xmpmeta xmlns:x="adobe:ns:meta/" x:xmptk="Adobe XMP Core 5.6-c111 79.158366, 2015/09/25-01:12:00        ">
   <rdf:RDF xmlns:rdf="http://www.w3.org/1999/02/22-rdf-syntax-ns#">
      <rdf:Description rdf:about=""
            xmlns:ExtensisFontSense="http://www.extensis.com/meta/FontSense/">
         <ExtensisFontSense:slug>
            <rdf:Bag>
               <rdf:li>
                  <rdf:Description>
                     <ExtensisFontSense:Family>Gotham Narrow</ExtensisFontSense:Family>
                     <ExtensisFontSense:Version>2.200</ExtensisFontSense:Version>
                     <ExtensisFontSense:OutlineFileSize>0</ExtensisFontSense:OutlineFileSize>
                     <ExtensisFontSense:KerningChecksum>0</ExtensisFontSense:KerningChecksum>
                     <ExtensisFontSense:Foundry>--</ExtensisFontSense:Foundry>
                     <ExtensisFontSense:FontKind>OpenType - PS</ExtensisFontSense:FontKind>
                     <ExtensisFontSense:Checksum>2457210338</ExtensisFontSense:Checksum>
                     <ExtensisFontSense:PostScriptName>GothamNarrow-Bold</ExtensisFontSense:PostScriptName>
                     <ExtensisFontSense:FontSense_1.2_Checksum>2457210338</ExtensisFontSense:FontSense_1.2_Checksum>
                  </rdf:Description>
               </rdf:li>
            </rdf:Bag>
         </ExtensisFontSense:slug>
      </rdf:Description>
   </rdf:RDF>
</x:xmpmeta>
                                                                                                    
                                                                                                    
                                                                                                    
                                                                                                    
                                                                                                    
                                                                                                    
                                                                                                    
                                                                                                    
                                                                                                    
                                                                                                    
                                                                                                    
                                                                                                    
                                                                                                    
                                                                                                    
                                                                                                    
                                                                                                    
                                                                                                    
                                                                                                    
                                                                                                    
                                                                                                    
                           
<?xpacket end="w"?></metadata>
<style type="text/css">
	.st0{fill:#FFFFFF;}
	.st1{font-family:'GothamNarrow-Bold';}
	.st2{font-size:12.7299px;}
	.st3{fill:none;}
</style>
<text id="XMLID_102_" transform="matrix(1.0152 0 0 1 262.6969 47.2074)" class="st0 st1 st2"> </text>
<text id="XMLID_101_" transform="matrix(1.0152 0 0 1 274.7867 72.6673)" class="st0 st1 st2"> </text>
<text id="XMLID_100_" transform="matrix(1.0152 0 0 1 298.6285 85.3968)" class="st0 st1 st2"> </text>
<g>
	<path class="st0" d="M219.4,40.1h-2.3v-1.7h6.4v1.7h-2.3v7.2h-1.9V40.1z"/>
	<path class="st0" d="M224.4,45.4L224.4,45.4c0-1.6,1-2.3,2.4-2.3c0.6,0,1,0.1,1.5,0.3v-0.2c0-0.8-0.5-1.2-1.3-1.2
		c-0.6,0-1.2,0.2-1.6,0.4l-0.5-1.4c0.7-0.3,1.4-0.5,2.4-0.5c0.9,0,1.7,0.3,2.1,0.7c0.5,0.5,0.7,1.2,0.7,2.1v4.1h-1.8v-0.7
		c-0.4,0.5-1,0.9-1.8,0.9C225.3,47.4,224.4,46.7,224.4,45.4z M225.3,38.5h4.1v1.2h-4.1V38.5z M228.3,45.1v-0.6
		c-0.3-0.1-0.6-0.2-1-0.2c-0.7,0-1.1,0.3-1.1,1v0c0,0.6,0.4,0.8,0.9,0.9C227.8,46.1,228.3,45.7,228.3,45.1z"/>
	<path class="st0" d="M231.4,40.5h1.8v0.9c0.4-0.6,0.9-1,1.8-1c0.8,0,1.4,0.4,1.7,1c0.5-0.6,1.1-1,2-1c1.2,0,2.1,0.8,2.1,2.3v4.7
		H239v-4.1c0-0.8-0.3-1.2-1-1.2c-0.6,0-1,0.4-1,1.2v4.1h-1.8v-4.1c0-0.8-0.3-1.2-0.9-1.2c-0.6,0-1,0.4-1,1.2v4.1h-1.8V40.5z"/>
	<path class="st0" d="M241.8,45.4L241.8,45.4c0-1.6,1-2.3,2.4-2.3c0.6,0,1,0.1,1.5,0.3v-0.2c0-0.8-0.5-1.2-1.3-1.2
		c-0.6,0-1.2,0.2-1.6,0.4l-0.5-1.4c0.7-0.3,1.4-0.5,2.4-0.5c0.9,0,1.7,0.3,2.1,0.7c0.5,0.5,0.7,1.2,0.7,2.1v4.1h-1.8v-0.7
		c-0.4,0.5-1,0.9-1.8,0.9C242.8,47.4,241.8,46.7,241.8,45.4z M245.7,45.1v-0.6c-0.3-0.1-0.6-0.2-1-0.2c-0.7,0-1.1,0.3-1.1,1v0
		c0,0.6,0.4,0.8,0.9,0.9C245.2,46.1,245.7,45.7,245.7,45.1z"/>
	<path class="st0" d="M248.8,38.1h1.8V43l1.9-2.5h2.2l-2.2,2.7l2.3,4.1h-2.1l-1.4-2.7l-0.6,0.7v2h-1.8V38.1z"/>
	<path class="st0" d="M256,38.1h1.9v1.6H256V38.1z M256.1,40.5h1.8v6.8h-1.8V40.5z"/>
</g>
<g>
	<path class="st0" d="M217.6,50.5h3c2,0,3.3,1.2,3.3,3.1v0c0,2.1-1.5,3.1-3.4,3.1h-1.1v2.7h-1.9V50.5z M220.6,55.1
		c1,0,1.5-0.6,1.5-1.4v0c0-0.9-0.5-1.4-1.5-1.4h-1v2.9H220.6z"/>
	<path class="st0" d="M224.2,57.5L224.2,57.5c0-1.6,1-2.3,2.4-2.3c0.6,0,1,0.1,1.5,0.3v-0.2c0-0.8-0.5-1.2-1.3-1.2
		c-0.6,0-1.2,0.2-1.6,0.4l-0.5-1.4c0.7-0.3,1.4-0.5,2.4-0.5c0.9,0,1.7,0.3,2.1,0.7c0.5,0.5,0.7,1.2,0.7,2.1v4.1h-1.8v-0.7
		c-0.4,0.5-1,0.9-1.8,0.9C225.1,59.6,224.2,58.8,224.2,57.5z M228.1,57.2v-0.6c-0.3-0.1-0.6-0.2-1-0.2c-0.7,0-1.1,0.3-1.1,1v0
		c0,0.6,0.4,0.8,0.9,0.9C227.6,58.3,228.1,57.9,228.1,57.2z"/>
	<path class="st0" d="M231.1,56.1V56c0-2,1.3-3.5,3-3.5c2,0,3,1.6,3,3.6c0,0.1,0,0.3,0,0.6H233c0.2,0.9,0.7,1.4,1.5,1.4
		c0.6,0,1-0.3,1.5-0.7l0.9,1.1c-0.6,0.7-1.4,1.1-2.5,1.1C232.6,59.6,231.1,58.3,231.1,56.1z M235.4,55.5c-0.1-0.9-0.5-1.5-1.2-1.5
		c-0.7,0-1.1,0.6-1.2,1.5H235.4z"/>
	<path class="st0" d="M238.2,52.6h1.8v0.9c0.4-0.5,0.9-1,1.8-1c1.3,0,2,0.9,2,2.3v4.7h-1.8v-4.1c0-0.8-0.4-1.2-1-1.2
		c-0.6,0-1,0.4-1,1.2v4.1h-1.8V52.6z"/>
	<path class="st0" d="M245.3,60.8l0.6-1.4c0.6,0.3,1.2,0.5,2,0.5c1.2,0,1.7-0.5,1.7-1.6v-0.4c-0.5,0.6-1,1.1-1.9,1.1
		c-1.4,0-2.6-1.1-2.6-3.2v0c0-2.2,1.2-3.2,2.6-3.2c0.9,0,1.5,0.5,1.9,1v-0.9h1.8v5.6c0,1.1-0.3,1.9-0.8,2.4
		c-0.6,0.6-1.5,0.8-2.6,0.8C246.9,61.4,246.1,61.2,245.3,60.8z M249.5,55.7L249.5,55.7c0-1-0.6-1.7-1.4-1.7c-0.8,0-1.3,0.7-1.3,1.7
		v0c0,1,0.6,1.7,1.3,1.7C248.9,57.4,249.5,56.8,249.5,55.7z"/>
	<path class="st0" d="M252.6,57.5L252.6,57.5c0-1.6,1-2.3,2.4-2.3c0.6,0,1,0.1,1.5,0.3v-0.2c0-0.8-0.5-1.2-1.3-1.2
		c-0.6,0-1.2,0.2-1.6,0.4l-0.5-1.4c0.7-0.3,1.4-0.5,2.4-0.5c0.9,0,1.7,0.3,2.1,0.7c0.5,0.5,0.7,1.2,0.7,2.1v4.1h-1.8v-0.7
		c-0.4,0.5-1,0.9-1.8,0.9C253.6,59.6,252.6,58.8,252.6,57.5z M256.5,57.2v-0.6c-0.3-0.1-0.6-0.2-1-0.2c-0.7,0-1.1,0.3-1.1,1v0
		c0,0.6,0.4,0.8,0.9,0.9C256,58.3,256.5,57.9,256.5,57.2z"/>
	<path class="st0" d="M262.6,50.5h1.9v3.6h3v-3.6h1.9v8.9h-1.9v-3.6h-3v3.6h-1.9V50.5z"/>
	<path class="st0" d="M270.7,50.3h1.9v1.6h-1.9V50.3z M270.7,52.6h1.8v6.8h-1.8V52.6z"/>
	<path class="st0" d="M274,52.6h1.8v1.2c0.3-0.8,0.9-1.4,1.9-1.3v2h-0.1c-1.1,0-1.8,0.7-1.8,2.1v2.9H274V52.6z"/>
	<path class="st0" d="M278.2,57.5L278.2,57.5c0-1.6,1-2.3,2.4-2.3c0.6,0,1,0.1,1.5,0.3v-0.2c0-0.8-0.5-1.2-1.3-1.2
		c-0.6,0-1.2,0.2-1.6,0.4l-0.5-1.4c0.7-0.3,1.4-0.5,2.4-0.5c0.9,0,1.7,0.3,2.1,0.7c0.5,0.5,0.7,1.2,0.7,2.1v4.1H282v-0.7
		c-0.4,0.5-1,0.9-1.8,0.9C279.1,59.6,278.2,58.8,278.2,57.5z M282.1,57.2v-0.6c-0.3-0.1-0.6-0.2-1-0.2c-0.7,0-1.1,0.3-1.1,1v0
		c0,0.6,0.4,0.8,0.9,0.9C281.5,58.3,282.1,57.9,282.1,57.2z"/>
</g>
<g>
	<path class="st0" d="M220.2,63.6h1.8l3.3,9h-1.9l-0.7-1.9h-3.1l-0.7,1.9h-1.9L220.2,63.6z M222,69l-1-2.9l-1,2.9H222z"/>
	<path class="st0" d="M225.9,70.4v-4.7h1.8v4.1c0,0.8,0.4,1.2,1,1.2s1-0.4,1-1.2v-4.1h1.8v6.8h-1.8v-0.9c-0.4,0.5-0.9,1-1.8,1
		C226.6,72.7,225.9,71.8,225.9,70.4z"/>
	<path class="st0" d="M232.7,69.2v-0.2c0-2,1.3-3.5,3.2-3.5c1,0,1.7,0.3,2.3,0.9l-1,1.3c-0.3-0.3-0.7-0.6-1.2-0.6
		c-0.8,0-1.4,0.8-1.4,1.9v0.1c0,1.1,0.5,1.9,1.5,1.9c0.5,0,0.9-0.3,1.3-0.6l1,1.2c-0.6,0.6-1.3,1-2.4,1
		C234,72.7,232.7,71.2,232.7,69.2z"/>
	<path class="st0" d="M239.3,63.3h1.8v4.9l1.9-2.5h2.2l-2.2,2.7l2.3,4.1h-2.1l-1.4-2.7l-0.6,0.7v2h-1.8V63.3z"/>
	<path class="st0" d="M246.2,63.3h1.8v9.2h-1.8V63.3z"/>
	<path class="st0" d="M249.4,70.6L249.4,70.6c0-1.6,1-2.3,2.4-2.3c0.6,0,1,0.1,1.5,0.3v-0.2c0-0.8-0.5-1.2-1.3-1.2
		c-0.6,0-1.2,0.2-1.6,0.4l-0.5-1.4c0.7-0.3,1.4-0.5,2.4-0.5c0.9,0,1.7,0.3,2.1,0.7c0.5,0.5,0.7,1.2,0.7,2.1v4.1h-1.8v-0.7
		c-0.4,0.5-1,0.9-1.8,0.9C250.3,72.7,249.4,71.9,249.4,70.6z M253.3,70.3v-0.6c-0.3-0.1-0.6-0.2-1-0.2c-0.7,0-1.1,0.3-1.1,1v0
		c0,0.6,0.4,0.8,0.9,0.9C252.8,71.4,253.3,70.9,253.3,70.3z"/>
	<path class="st0" d="M256.4,65.7h1.8v0.9c0.4-0.5,0.9-1,1.8-1c1.3,0,2,0.9,2,2.3v4.7h-1.8v-4.1c0-0.8-0.4-1.2-1-1.2
		c-0.6,0-1,0.4-1,1.2v4.1h-1.8V65.7z"/>
	<path class="st0" d="M263.5,69.2V69c0-2.3,1.3-3.4,2.6-3.4c0.9,0,1.5,0.5,1.9,1v-3.3h1.8v9.2H268v-0.9c-0.4,0.6-1,1.1-1.9,1.1
		C264.7,72.7,263.5,71.6,263.5,69.2z M268,69.2v-0.1c0-1.2-0.6-1.9-1.4-1.9c-0.8,0-1.3,0.7-1.3,1.9v0.1c0,1.2,0.6,1.9,1.3,1.9
		C267.4,71.1,268,70.3,268,69.2z"/>
</g>
<g>
	<path class="st0" d="M217,76.8h2l1.5,5.9l1.7-5.9h1.6l1.7,5.9l1.5-5.9h2l-2.6,9h-1.7l-1.7-5.7l-1.7,5.7h-1.7L217,76.8z"/>
	<path class="st0" d="M229.2,83.7L229.2,83.7c0-1.6,1-2.3,2.4-2.3c0.6,0,1,0.1,1.5,0.3v-0.2c0-0.8-0.5-1.2-1.3-1.2
		c-0.7,0-1.2,0.2-1.6,0.4l-0.5-1.4c0.7-0.3,1.4-0.5,2.4-0.5c1,0,1.7,0.3,2.1,0.7c0.5,0.5,0.7,1.2,0.7,2.1v4.1h-1.8V85
		c-0.4,0.5-1,0.9-1.8,0.9C230.1,85.8,229.2,85.1,229.2,83.7z M233.1,83.5v-0.6c-0.3-0.1-0.7-0.2-1-0.2c-0.7,0-1.1,0.3-1.1,1v0
		c0,0.6,0.4,0.8,0.9,0.9C232.6,84.5,233.1,84.1,233.1,83.5z"/>
	<path class="st0" d="M236.3,78.9h1.8v1.2c0.3-0.8,0.9-1.4,1.9-1.3v2h-0.1c-1.1,0-1.8,0.7-1.8,2.1v2.9h-1.8V78.9z"/>
	<path class="st0" d="M244.7,76.8h2l2,3.6l2-3.6h2v8.9h-1.8V80l-2.1,3.7h0l-2.1-3.7v5.7h-1.8V76.8z"/>
	<path class="st0" d="M254.1,82.4v-0.1c0-2,1.3-3.5,3-3.5c2,0,3,1.6,3,3.6c0,0.1,0,0.3,0,0.6h-4.2c0.2,0.9,0.7,1.4,1.5,1.4
		c0.6,0,1-0.3,1.5-0.7l1,1.1c-0.6,0.7-1.4,1.1-2.5,1.1C255.5,85.9,254.1,84.5,254.1,82.4z M258.3,81.8c-0.1-0.9-0.5-1.5-1.2-1.5
		c-0.7,0-1.1,0.6-1.2,1.5H258.3z"/>
	<path class="st0" d="M261.7,78.9h1.8v0.9c0.4-0.6,0.9-1,1.8-1c0.8,0,1.4,0.4,1.7,1c0.5-0.6,1.1-1,2-1c1.2,0,2.1,0.8,2.1,2.3v4.7
		h-1.8v-4.1c0-0.8-0.4-1.2-1-1.2c-0.6,0-1,0.4-1,1.2v4.1h-1.8v-4.1c0-0.8-0.3-1.2-1-1.2c-0.6,0-1,0.4-1,1.2v4.1h-1.8V78.9z"/>
	<path class="st0" d="M272.5,82.4v-0.1c0-2,1.4-3.5,3.3-3.5c1.9,0,3.3,1.4,3.3,3.5v0.1c0,2-1.4,3.5-3.3,3.5
		C273.9,85.9,272.5,84.4,272.5,82.4z M277.2,82.3L277.2,82.3c0-1.2-0.6-2-1.5-2c-0.9,0-1.5,0.8-1.5,1.9v0.1c0,1.1,0.6,2,1.5,2
		C276.7,84.3,277.2,83.5,277.2,82.3z"/>
	<path class="st0" d="M280.4,78.9h1.8v1.2c0.3-0.8,0.9-1.4,1.9-1.3v2h-0.1c-1.1,0-1.8,0.7-1.8,2.1v2.9h-1.8V78.9z"/>
	<path class="st0" d="M285.5,76.5h1.9v1.6h-1.9V76.5z M285.5,78.9h1.8v6.8h-1.8V78.9z"/>
	<path class="st0" d="M288.7,83.7L288.7,83.7c0-1.6,1-2.3,2.4-2.3c0.6,0,1,0.1,1.5,0.3v-0.2c0-0.8-0.5-1.2-1.3-1.2
		c-0.7,0-1.2,0.2-1.6,0.4l-0.5-1.4c0.7-0.3,1.4-0.5,2.4-0.5c1,0,1.7,0.3,2.1,0.7c0.5,0.5,0.7,1.2,0.7,2.1v4.1h-1.8V85
		c-0.4,0.5-1,0.9-1.8,0.9C289.6,85.8,288.7,85.1,288.7,83.7z M292.6,83.5v-0.6c-0.3-0.1-0.7-0.2-1-0.2c-0.7,0-1.1,0.3-1.1,1v0
		c0,0.6,0.4,0.8,0.9,0.9C292.1,84.5,292.6,84.1,292.6,83.5z"/>
	<path class="st0" d="M296.1,76.5h1.8v9.2h-1.8V76.5z"/>
</g>
<g>
	<path class="st0" d="M217.5,89.6h2l2,3.6l2-3.6h2v8.9h-1.8v-5.7l-2.1,3.7h0l-2.1-3.7v5.7h-1.8V89.6z"/>
	<path class="st0" d="M227.3,96.4v-4.7h1.8v4.1c0,0.8,0.4,1.2,1,1.2s1-0.4,1-1.2v-4.1h1.8v6.8h-1.8v-0.9c-0.4,0.5-0.9,1-1.8,1
		C228,98.7,227.3,97.8,227.3,96.4z"/>
	<path class="st0" d="M234.4,97.7l0.8-1.3c0.6,0.5,1.3,0.8,1.9,0.8c0.5,0,0.7-0.2,0.7-0.5v0c0-0.4-0.5-0.6-1.3-0.9
		c-1-0.4-1.8-0.9-1.8-2.1v0c0-1.3,1-2.1,2.4-2.1c0.8,0,1.6,0.3,2.3,0.7l-0.7,1.3c-0.5-0.3-1.1-0.6-1.6-0.6c-0.4,0-0.7,0.2-0.7,0.5v0
		c0,0.4,0.5,0.6,1.3,0.9c1,0.5,1.8,1,1.8,2.1v0c0,1.4-1.1,2.1-2.4,2.1C236.2,98.7,235.2,98.4,234.4,97.7z"/>
	<path class="st0" d="M240.6,95.2v-0.1c0-2,1.3-3.5,3-3.5c2,0,3,1.6,3,3.6c0,0.1,0,0.3,0,0.6h-4.1c0.2,0.9,0.7,1.4,1.5,1.4
		c0.6,0,1-0.3,1.5-0.7l0.9,1.1c-0.6,0.7-1.4,1.1-2.5,1.1C242.1,98.7,240.6,97.3,240.6,95.2z M244.9,94.6c-0.1-0.9-0.5-1.5-1.2-1.5
		c-0.7,0-1.1,0.6-1.2,1.5H244.9z"/>
	<path class="st0" d="M248.2,96.4v-4.7h1.8v4.1c0,0.8,0.4,1.2,1,1.2s1-0.4,1-1.2v-4.1h1.8v6.8H252v-0.9c-0.4,0.5-0.9,1-1.8,1
		C248.9,98.7,248.2,97.8,248.2,96.4z"/>
	<path class="st0" d="M255.5,91.7h1.8v0.9c0.4-0.6,0.9-1,1.8-1c0.8,0,1.4,0.4,1.7,1c0.5-0.6,1.1-1,2-1c1.2,0,2.1,0.8,2.1,2.3v4.7
		h-1.8v-4.1c0-0.8-0.3-1.2-1-1.2c-0.6,0-1,0.4-1,1.2v4.1h-1.8v-4.1c0-0.8-0.3-1.2-0.9-1.2c-0.6,0-1,0.4-1,1.2v4.1h-1.8V91.7z"/>
</g>
<path id="XMLID_86_" class="st0" d="M71,97.5l-2.7,6.8h29.8l4.6,11.6h7.3l-7.4-18.4H71z M136.7,116h6.8V92.5l-6.8-17V116z
	 M189.5,92.5V116h6.8V75.5L189.5,92.5z M71.7,38.4l-31,77.6H48l27.4-68.4L89.6,83h7.3L79,38.4H71.7z M83.2,38.4l19.4,48.6H71.1
	L79,67.1L75.4,58l-23.2,58h7.3l8.9-22.2h36.9l8.9,22.2h7.3l-31-77.6H83.2z M126.1,38.4V116h6.7V55.4l24.3,60.6h7.3l-31-77.6H126.1z
	 M188.2,38.4l-19.6,48.9l3.7,9.2l23.2-58.1H188.2z M199.6,38.4l-27.3,68.5l-27.4-68.5h-7.3l31,77.6h7.3l24.3-60.6V116h6.7V38.4
	H199.6z"/>
<text id="XMLID_85_" transform="matrix(1.0152 0 0 1 262.6962 47.2074)" class="st0 st1 st2"> </text>
<text id="XMLID_84_" transform="matrix(1.0152 0 0 1 274.786 72.6673)" class="st0 st1 st2"> </text>
<rect id="XMLID_74_" x="200.2" y="109.2" class="st0" width="115.3" height="6.8"/>
<rect id="XMLID_73_" x="17.5" y="109.2" class="st0" width="29.2" height="6.8"/>
<rect id="XMLID_72_" x="262.8" y="63.3" transform="matrix(4.950446e-11 -1 1 4.950446e-11 245.403 378.7914)" class="st0" width="98.5" height="6.8"/>
<rect id="XMLID_12_" x="-28.4" y="63.3" transform="matrix(4.950357e-11 -1 1 4.950357e-11 -45.8283 87.5623)" class="st0" width="98.5" height="6.8"/>
<rect id="XMLID_11_" x="17.5" y="17.4" transform="matrix(-1 3.272526e-11 -3.272526e-11 -1 332.9642 41.6493)" class="st0" width="298" height="6.8"/>
<g>
	<rect id="XMLID_9_" x="206.9" y="98.5" class="st3" width="10.6" height="10.6"/>
	<rect id="XMLID_1_" x="206.9" y="109.2" class="st3" width="10.6" height="6.8"/>
</g>
<g>
	<rect id="XMLID_7_" x="206.9" y="116" class="st3" width="10.6" height="10.6"/>
	<rect id="XMLID_6_" x="206.9" y="126.6" class="st3" width="10.6" height="6.8"/>
</g>
<g>
	
		<rect id="XMLID_3_" x="206.9" y="27.8" transform="matrix(-1 2.694528e-10 -2.694528e-10 -1 424.3973 66.1489)" class="st3" width="10.6" height="10.6"/>
	
		<rect id="XMLID_2_" x="206.9" y="21" transform="matrix(-1 2.530832e-10 -2.530832e-10 -1 424.3973 48.7287)" class="st3" width="10.6" height="6.8"/>
</g>
<g>
	
		<rect id="XMLID_14_" x="206.9" y="6.8" transform="matrix(-1 2.694528e-10 -2.694528e-10 -1 424.3973 24.2288)" class="st3" width="10.6" height="10.6"/>
	
		<rect id="XMLID_13_" x="206.9" y="0" transform="matrix(-1 2.531689e-10 -2.531689e-10 -1 424.3973 6.8085)" class="st3" width="10.6" height="6.8"/>
</g>
<g>
	
		<rect id="XMLID_5_" x="0" y="94.5" transform="matrix(-3.143618e-10 -1 1 -3.143618e-10 -94.4723 105.1245)" class="st3" width="10.6" height="10.6"/>
	
		<rect id="XMLID_4_" x="8.7" y="96.4" transform="matrix(-2.980780e-10 -1 1 -2.980780e-10 -85.7622 113.8346)" class="st3" width="10.6" height="6.8"/>
</g>
<g>
	
		<rect id="XMLID_10_" x="315.5" y="94.5" transform="matrix(-3.143618e-10 -1 1 -3.143618e-10 221.0061 420.6028)" class="st3" width="10.6" height="10.6"/>
	
		<rect id="XMLID_8_" x="324.2" y="96.4" transform="matrix(-2.982494e-10 -1 1 -2.982494e-10 229.7162 429.313)" class="st3" width="10.6" height="6.8"/>
</g>
<rect class="st3" width="332.9" height="133.4"/>
<rect x="24.2" y="38.4" class="st3" width="101.8" height="70.8"/>
</svg>
